<svg width="21" height="18" viewBox="0 0 21 18" fill="none" xmlns="http://www.w3.org/2000/svg">
<path d="M0.648926 0V1.25H2.88608L5.82669 11.6982H18.1259L21.0002 2.29927H6.30006V3.54927H19.3108L17.2011 10.4482H6.77344L3.83284 0H0.648926Z" fill="#161412"/>
<path fill-rule="evenodd" clip-rule="evenodd" d="M5.7382 14.9107C5.7382 13.6188 6.78554 12.5714 8.07749 12.5714C9.36944 12.5714 10.4168 13.6188 10.4168 14.9107C10.4168 16.2027 9.36944 17.25 8.07749 17.25C6.78554 17.25 5.7382 16.2027 5.7382 14.9107ZM8.07749 13.8214C7.47589 13.8214 6.9882 14.3091 6.9882 14.9107C6.9882 15.5123 7.47589 16 8.07749 16C8.67909 16 9.16678 15.5123 9.16678 14.9107C9.16678 14.3091 8.67909 13.8214 8.07749 13.8214Z" fill="#161412"/>
<path fill-rule="evenodd" clip-rule="evenodd" d="M13.7382 14.9107C13.7382 13.6188 14.7855 12.5714 16.0775 12.5714C17.3694 12.5714 18.4168 13.6188 18.4168 14.9107C18.4168 16.2027 17.3694 17.25 16.0775 17.25C14.7855 17.25 13.7382 16.2027 13.7382 14.9107ZM16.0775 13.8214C15.4759 13.8214 14.9882 14.3091 14.9882 14.9107C14.9882 15.5123 15.4759 16 16.0775 16C16.6791 16 17.1668 15.5123 17.1668 14.9107C17.1668 14.3091 16.6791 13.8214 16.0775 13.8214Z" fill="#161412"/>
</svg>
