<svg width="18" height="19" viewBox="0 0 18 19" fill="none" xmlns="http://www.w3.org/2000/svg">
<path d="M9.61438 18.5996H0.993462C0.444627 18.5996 0 18.1547 0 17.6061V1.59306C0 1.0443 0.444697 0.599609 0.993462 0.599609H17.0066C17.5552 0.599609 18 1.0443 18 1.59306V17.6061C18 18.1548 17.5552 18.5996 17.0066 18.5996H12.4197V11.629H14.7594L15.1098 8.91245H12.4197V7.1781C12.4197 6.39159 12.6381 5.85561 13.766 5.85561L15.2045 5.85498V3.42527C14.9557 3.39216 14.1018 3.3182 13.1083 3.3182C11.0343 3.3182 9.61438 4.58418 9.61438 6.90906V8.91245H7.26867V11.629H9.61438V18.5996V18.5996Z" fill="black"/>
</svg>
