<svg width="18" height="19" viewBox="0 0 18 19" fill="none" xmlns="http://www.w3.org/2000/svg">
<path fill-rule="evenodd" clip-rule="evenodd" d="M16.2217 12.8682L13.6817 12.5782C13.0717 12.5082 12.4717 12.7182 12.0417 13.1482L10.2017 14.9882C7.37174 13.5482 5.05174 11.2382 3.61174 8.39816L5.46174 6.54816C5.89174 6.11816 6.10174 5.51816 6.03174 4.90816L5.74174 2.38816C5.62174 1.37816 4.77174 0.618164 3.75174 0.618164H2.02174C0.89174 0.618164 -0.0482601 1.55816 0.0217399 2.68816C0.55174 11.2282 7.38174 18.0482 15.9117 18.5782C17.0417 18.6482 17.9817 17.7082 17.9817 16.5782V14.8482C17.9917 13.8382 17.2317 12.9882 16.2217 12.8682Z" fill="black"/>
</svg>
