<svg width="18" height="19" viewBox="0 0 18 19" fill="none" xmlns="http://www.w3.org/2000/svg">
<path d="M9.00053 0.599609C4.03034 0.599609 0 4.62889 0 9.60014C0 13.2844 2.21626 16.4511 5.38825 17.8429C5.36285 17.2152 5.38402 16.4595 5.54384 15.7758C5.71741 15.0455 6.70171 10.8723 6.70171 10.8723C6.70171 10.8723 6.41489 10.2976 6.41489 9.44773C6.41489 8.11416 7.18857 7.11822 8.15064 7.11822C8.96878 7.11822 9.36461 7.73314 9.36461 8.46978C9.36461 9.29215 8.83965 10.5231 8.56977 11.6629C8.34433 12.6187 9.04816 13.3966 9.99012 13.3966C11.6952 13.3966 12.8435 11.2068 12.8435 8.6116C12.8435 6.63983 11.5153 5.16338 9.09896 5.16338C6.36938 5.16338 4.66855 7.19866 4.66855 9.47207C4.66855 10.2574 4.89928 10.8099 5.26125 11.2375C5.42847 11.4354 5.4507 11.5137 5.39037 11.7402C5.34803 11.9042 5.24854 12.3043 5.20727 12.462C5.14694 12.6896 4.96278 12.7721 4.75745 12.6875C3.49903 12.1741 2.91374 10.7972 2.91374 9.24875C2.91374 6.69275 5.06968 3.62554 9.34556 3.62554C12.7821 3.62554 15.0439 6.11381 15.0439 8.782C15.0439 12.3128 13.0817 14.9503 10.187 14.9503C9.21644 14.9503 8.30199 14.4253 7.98871 13.8295C7.98871 13.8295 7.46587 15.9028 7.35579 16.3029C7.16528 16.9962 6.79167 17.6905 6.44981 18.2302C7.25948 18.4694 8.11466 18.5996 9.00053 18.5996C13.9707 18.5996 18 14.5703 18 9.60014C18 4.62889 13.9707 0.599609 9.00053 0.599609" fill="#161412"/>
</svg>
