<svg width="17" height="17" viewBox="0 0 17 17" fill="none" xmlns="http://www.w3.org/2000/svg">
<path fill-rule="evenodd" clip-rule="evenodd" d="M6.94041 0C3.25211 0 0.262695 2.98942 0.262695 6.67772C0.262695 10.366 3.25211 13.3554 6.94041 13.3554C8.46266 13.3554 9.86586 12.8462 10.989 11.9888L15.765 16.7649L16.6489 15.881L11.9083 11.1404C12.9713 9.95769 13.6181 8.39331 13.6181 6.67772C13.6181 2.98942 10.6287 0 6.94041 0ZM1.5127 6.67772C1.5127 3.67977 3.94247 1.25 6.94041 1.25C9.93836 1.25 12.3681 3.67977 12.3681 6.67772C12.3681 9.67567 9.93836 12.1054 6.94041 12.1054C3.94247 12.1054 1.5127 9.67567 1.5127 6.67772Z" fill="#161412"/>
</svg>
