<svg width="14" height="21" viewBox="0 0 14 21" fill="none" xmlns="http://www.w3.org/2000/svg">
<path fill-rule="evenodd" clip-rule="evenodd" d="M0 7.86426C0 3.99426 3.13 0.864258 7 0.864258C10.87 0.864258 14 3.99426 14 7.86426C14 12.0343 9.58 17.7843 7.77 19.9743C7.37 20.4543 6.64 20.4543 6.24 19.9743C4.42 17.7843 0 12.0343 0 7.86426ZM4.5 7.86426C4.5 9.24426 5.62 10.3643 7 10.3643C8.38 10.3643 9.5 9.24426 9.5 7.86426C9.5 6.48426 8.38 5.36426 7 5.36426C5.62 5.36426 4.5 6.48426 4.5 7.86426Z" fill="black"/>
</svg>
