<svg width="21" height="19" viewBox="0 0 21 19" fill="none" xmlns="http://www.w3.org/2000/svg">
<path fill-rule="evenodd" clip-rule="evenodd" d="M5.98193 0.599609H15.9819C16.5319 0.599609 16.9819 1.04961 16.9819 1.59961V3.59961C16.9819 4.14961 16.5319 4.59961 15.9819 4.59961H5.98193C5.43193 4.59961 4.98193 4.14961 4.98193 3.59961V1.59961C4.98193 1.04961 5.43193 0.599609 5.98193 0.599609ZM3.98193 5.59961H17.9819C19.6419 5.59961 20.9819 6.93961 20.9819 8.59961V12.5996C20.9819 13.6996 20.0819 14.5996 18.9819 14.5996H16.9819V16.5996C16.9819 17.6996 16.0819 18.5996 14.9819 18.5996H6.98193C5.88193 18.5996 4.98193 17.6996 4.98193 16.5996V14.5996H2.98193C1.88193 14.5996 0.981934 13.6996 0.981934 12.5996V8.59961C0.981934 6.93961 2.32193 5.59961 3.98193 5.59961ZM7.98193 16.5996H13.9819C14.5319 16.5996 14.9819 16.1496 14.9819 15.5996V11.5996H6.98193V15.5996C6.98193 16.1496 7.43193 16.5996 7.98193 16.5996ZM17.9819 9.59961C17.4319 9.59961 16.9819 9.14961 16.9819 8.59961C16.9819 8.04961 17.4319 7.59961 17.9819 7.59961C18.5319 7.59961 18.9819 8.04961 18.9819 8.59961C18.9819 9.14961 18.5319 9.59961 17.9819 9.59961Z" fill="black"/>
</svg>
