<svg width="18" height="16" viewBox="0 0 18 16" fill="none" xmlns="http://www.w3.org/2000/svg">
<path d="M18 1.87534C17.3386 2.17653 16.6265 2.38022 15.8796 2.47122C16.6424 2.00318 17.2277 1.26104 17.5034 0.376966C16.7892 0.810335 16 1.12561 15.1569 1.29463C14.4849 0.558981 13.5246 0.0996094 12.4617 0.0996094C10.4237 0.0996094 8.77021 1.79517 8.77021 3.88617C8.77021 4.18303 8.8019 4.47122 8.86529 4.74858C5.79609 4.5904 3.07554 3.08444 1.25304 0.790834C0.935024 1.35205 0.753302 2.00318 0.753302 2.69658C0.753302 4.00969 1.40518 5.16895 2.3962 5.84826C1.79186 5.82984 1.22134 5.65757 0.722663 5.37588V5.42247C0.722663 7.25779 1.99577 8.78867 3.68621 9.13536C3.37665 9.2242 3.05018 9.26862 2.71315 9.26862C2.47544 9.26862 2.243 9.24587 2.01796 9.20145C2.48811 10.7052 3.85103 11.8006 5.46751 11.8298C4.20391 12.8461 2.61067 13.4517 0.881141 13.4517C0.583201 13.4517 0.288431 13.4344 0 13.3997C1.63444 14.4723 3.57633 15.0996 5.66086 15.0996C12.4543 15.0996 16.168 9.33038 16.168 4.32605C16.168 4.16136 16.1648 3.99668 16.1585 3.83525C16.8801 3.30113 17.5066 2.63482 18 1.87534" fill="black"/>
</svg>
