<svg width="27" height="20" viewBox="0 0 27 20" fill="none" xmlns="http://www.w3.org/2000/svg">
<path d="M21.5727 6.30965C22.5513 6.30965 23.4899 6.05047 24.1819 5.58913C24.8739 5.12779 25.2627 4.50208 25.2627 3.84965C25.2627 3.19722 24.8739 2.57151 24.1819 2.11017C23.4899 1.64883 22.5513 1.38965 21.5727 1.38965C20.594 1.38965 19.6555 1.64883 18.9635 2.11017C18.2715 2.57151 17.8827 3.19722 17.8827 3.84965C17.8827 4.50208 18.2715 5.12779 18.9635 5.58913C19.6555 6.05047 20.594 6.30965 21.5727 6.30965ZM4.9527 6.30965C5.93134 6.30965 6.86991 6.05047 7.56192 5.58913C8.25393 5.12779 8.6427 4.50208 8.6427 3.84965C8.6427 3.19722 8.25393 2.57151 7.56192 2.11017C6.86991 1.64883 5.93134 1.38965 4.9527 1.38965C3.97405 1.38965 3.03548 1.64883 2.34347 2.11017C1.65146 2.57151 1.2627 3.19722 1.2627 3.84965C1.2627 4.50208 1.65146 5.12779 2.34347 5.58913C3.03548 6.05047 3.97405 6.30965 4.9527 6.30965ZM21.5727 18.6096C22.0573 18.6096 22.5371 18.546 22.9848 18.4224C23.4325 18.2988 23.8393 18.1176 24.1819 17.8891C24.5246 17.6607 24.7964 17.3895 24.9818 17.0911C25.1673 16.7926 25.2627 16.4727 25.2627 16.1496C25.2627 15.8266 25.1673 15.5067 24.9818 15.2082C24.7964 14.9098 24.5246 14.6386 24.1819 14.4102C23.8393 14.1817 23.4325 14.0005 22.9848 13.8769C22.5371 13.7533 22.0573 13.6896 21.5727 13.6896C20.594 13.6896 19.6555 13.9488 18.9635 14.4102C18.2715 14.8715 17.8827 15.4972 17.8827 16.1496C17.8827 16.8021 18.2715 17.4278 18.9635 17.8891C19.6555 18.3505 20.594 18.6096 21.5727 18.6096ZM4.9527 18.6096C5.43727 18.6096 5.91711 18.546 6.3648 18.4224C6.81249 18.2988 7.21927 18.1176 7.56192 17.8891C7.90457 17.6607 8.17637 17.3895 8.36181 17.0911C8.54725 16.7926 8.6427 16.4727 8.6427 16.1496C8.6427 15.8266 8.54725 15.5067 8.36181 15.2082C8.17637 14.9098 7.90457 14.6386 7.56192 14.4102C7.21927 14.1817 6.81249 14.0005 6.3648 13.8769C5.91711 13.7533 5.43727 13.6896 4.9527 13.6896C3.97405 13.6896 3.03548 13.9488 2.34347 14.4102C1.65146 14.8715 1.2627 15.4972 1.2627 16.1496C1.2627 16.8021 1.65146 17.4278 2.34347 17.8891C3.03548 18.3505 3.97405 18.6096 4.9527 18.6096Z" stroke="black" stroke-width="1.5" stroke-miterlimit="10" stroke-linecap="round" stroke-linejoin="round"/>
</svg>
