<svg width="137" height="142" viewBox="0 0 137 142" fill="none" xmlns="http://www.w3.org/2000/svg">
<path d="M107.777 77.9167C101.119 77.9167 94.9563 80.2542 90.0688 84.15C86.7439 86.7923 84.0607 90.1533 82.2206 93.9809C80.3804 97.8084 79.4311 102.003 79.4438 106.25C79.4438 111.562 80.9313 116.592 83.5521 120.842C86.0493 125.038 89.5963 128.513 93.844 130.922C98.0917 133.332 102.894 134.593 107.777 134.583C114.931 134.583 121.448 131.962 126.406 127.5C128.602 125.658 130.515 123.392 132.002 120.842C134.623 116.592 136.11 111.562 136.11 106.25C136.11 90.5958 123.431 77.9167 107.777 77.9167ZM122.44 103.204L107.352 117.158C106.36 118.079 105.015 118.575 103.74 118.575C102.394 118.575 101.048 118.079 99.9855 117.017L92.973 110.004C91.985 109.004 91.4309 107.656 91.4309 106.25C91.4309 104.844 91.985 103.496 92.973 102.496C95.0272 100.442 98.4271 100.442 100.481 102.496L103.881 105.896L115.215 95.4125C117.34 93.4292 120.74 93.5708 122.723 95.6958C124.706 97.8208 124.565 101.15 122.44 103.204Z" fill="black"/>
<path d="M129.665 138.125C129.665 140.108 128.106 141.667 126.123 141.667H4.43132C2.44798 141.667 0.889648 140.108 0.889648 138.125C0.889648 108.8 29.7896 85 65.2772 85C72.573 85 79.6563 85.9917 86.173 87.9042C81.9938 92.8625 79.4438 99.3083 79.4438 106.25C79.4438 111.562 80.9313 116.592 83.5521 120.842C84.9688 123.25 86.8105 125.446 88.9355 127.287C93.8938 131.821 100.481 134.583 107.777 134.583C115.71 134.583 122.865 131.325 127.965 126.083C129.098 129.908 129.665 133.946 129.665 138.125Z" fill="black"/>
<path d="M65.2771 70.8333C74.6702 70.8333 83.6786 67.1019 90.3205 60.46C96.9624 53.8181 100.694 44.8097 100.694 35.4167C100.694 26.0236 96.9624 17.0152 90.3205 10.3733C83.6786 3.73139 74.6702 0 65.2771 0C55.8841 0 46.8757 3.73139 40.2338 10.3733C33.5919 17.0152 29.8605 26.0236 29.8605 35.4167C29.8605 44.8097 33.5919 53.8181 40.2338 60.46C46.8757 67.1019 55.8841 70.8333 65.2771 70.8333Z" fill="black"/>
</svg>
