<svg width="22" height="22" viewBox="0 0 22 22" fill="none" xmlns="http://www.w3.org/2000/svg">
<path d="M11 21C13.496 21.0044 15.9023 20.0691 17.74 18.38C17.64 17.44 17.04 16.52 15.97 15.8C13.25 13.98 8.77 13.98 6.03 15.8C4.96 16.52 4.36 17.44 4.26 18.38C6.04 20.01 8.4 21 11 21ZM11 21C16.523 21 21 16.523 21 11C21 5.477 16.523 1 11 1C5.477 1 1 5.477 1 11C1 16.523 5.477 21 11 21ZM11.12 11.78C11.0403 11.77 10.9597 11.77 10.88 11.78C10.0319 11.7515 9.2282 11.3944 8.63855 10.7842C8.0489 10.174 7.71952 9.35853 7.72 8.51C7.72 6.7 9.18 5.23 11 5.23C11.8594 5.22851 12.685 5.56481 13.2988 6.1664C13.9126 6.76799 14.2654 7.58669 14.2811 8.44599C14.2969 9.30528 13.9743 10.1364 13.383 10.76C12.7917 11.3837 11.9789 11.75 11.12 11.78Z" stroke="black" stroke-width="1.5" stroke-linecap="round" stroke-linejoin="round"/>
</svg>
